Coordinates
version=1
nRows=13
nColumns=40
inDegrees=yes

Units are S.I. units (second, meters, Newtons, ...)
Angles are in degrees.

endheader
time	pelvis_tilt	pelvis_list	pelvis_rotation	pelvis_tx	pelvis_ty	pelvis_tz	hip_flexion_r	hip_adduction_r	hip_rotation_r	knee_angle_r	knee_angle_r_beta	ankle_angle_r	subtalar_angle_r	mtp_angle_r	hip_flexion_l	hip_adduction_l	hip_rotation_l	knee_angle_l	knee_angle_l_beta	ankle_angle_l	subtalar_angle_l	mtp_angle_l	lumbar_extension	lumbar_bending	lumbar_rotation	arm_flex_r	arm_add_r	arm_rot_r	elbow_flex_r	pro_sup_r	wrist_flex_r	wrist_dev_r	arm_flex_l	arm_add_l	arm_rot_l	elbow_flex_l	pro_sup_l	wrist_flex_l	wrist_dev_l
     31.04000000	     -3.26245596	     -3.81547542	     -0.64159130	      0.94106702	      0.93408656	      0.44312003	     31.62613940	     -5.78712910	     -4.85513368	     68.66524983	     68.66524983	     -3.24901361	    -16.67693854	      1.40479351	     13.58603822	     -2.13650077	     -6.10123067	     20.81889660	     20.81889660	     13.18876660	    -12.28980625	      2.85422779	     -8.87021787	      6.61263588	      2.82061591	      2.30258972	    -11.39043375	     -7.22772414	     24.65996044	     46.18792905	      0.00000000	      0.00000000	     10.43426951	    -13.72931775	      3.49713251	     52.15116001	     46.29916179	      0.00000000	      0.00000000
     31.05207143	     -3.38188919	     -3.70446869	     -0.81654475	      0.94015305	      0.93432289	      0.44230649	     32.53901576	     -5.90712419	     -5.18474492	     66.79135591	     66.79135591	     -2.61967208	    -16.71906551	      1.43413953	     13.08953548	     -1.98012464	     -6.36992544	     20.59661506	     20.59661506	     13.44992379	    -12.19936205	      2.76840448	     -8.74242070	      6.61518983	      2.26512650	      1.25262824	    -11.33772550	     -7.22307904	     24.28244933	     46.19537845	      0.00000000	      0.00000000	     11.42818517	    -14.21747518	      3.25988191	     52.65336373	     46.33358414	      0.00000000	      0.00000000
     31.06414286	     -3.24588779	     -3.71114865	     -1.02248419	      0.93963094	      0.93533277	      0.44170866	     32.92158083	     -5.81924327	     -5.58349700	     64.53014343	     64.53014343	     -2.26178725	    -16.98771250	      1.42278419	     11.70434854	     -1.92628582	     -6.81626089	     19.26928807	     19.26928807	     13.64164047	    -11.28278061	      2.69447493	     -9.05450307	      6.68189330	      3.24075592	     -0.83204530	    -11.37005283	     -7.09232007	     23.28633347	     46.21666510	      0.00000000	      0.00000000	     12.85789155	    -14.08177993	      2.58150821	     54.98578329	     46.43657729	      0.00000000	      0.00000000
     31.07621429	     -3.32404019	     -3.68285889	     -1.16015520	      0.93884719	      0.93564797	      0.44105544	     33.45004270	     -5.79124919	     -6.01590511	     62.13842333	     62.13842333	     -1.80404025	    -17.00916316	      1.50816035	     10.95296935	     -1.84230083	     -7.09138983	     18.63076675	     18.63076675	     13.86242003	    -10.82267108	      2.52330491	     -9.01517200	      6.72583635	      3.19346082	     -2.29109472	    -11.29679960	     -7.03267193	     22.77815061	     46.22493569	      0.00000000	      0.00000000	     13.92913275	    -14.35486661	      2.04971149	     56.46018339	     46.51065070	      0.00000000	      0.00000000
     31.08828571	     -3.28011559	     -3.65058438	     -1.36121443	      0.93811580	      0.93596499	      0.44065296	     33.71058289	     -5.66439073	     -6.34072466	     59.50536069	     59.50536069	     -1.49107945	    -17.02592673	      1.29165700	     10.03127776	     -1.81443175	     -7.67185095	     17.92144273	     17.92144273	     13.91707599	    -10.06116070	      1.55724588	     -9.26450224	      6.67370517	      2.92706508	     -3.68107005	    -11.31234766	     -6.64977549	     22.89842730	     46.20910010	      0.00000000	      0.00000000	     13.93700916	    -14.62971442	      0.08416034	     60.50521103	     46.74359481	      0.00000000	      0.00000000
     31.10035714	     -3.35020666	     -3.66172752	     -1.48452524	      0.93726674	      0.93610522	      0.44026226	     33.94607386	     -5.50078279	     -6.75930616	     56.62092899	     56.62092899	     -1.05235873	    -16.83247897	      1.55809998	      9.28972229	     -1.76120273	     -7.84379388	     17.27276388	     17.27276388	     14.13430982	     -9.72406755	      1.47399362	     -9.25322527	      6.72688692	      2.95129636	     -4.99878949	    -11.31190674	     -6.52430526	     22.37777880	     46.21499689	      0.00000000	      0.00000000	     15.08796509	    -14.76683584	     -0.39978252	     61.63007140	     46.80784391	      0.00000000	      0.00000000
     31.11242857	     -3.46187781	     -3.66941623	     -1.58551897	      0.93633668	      0.93599231	      0.44003073	     34.10686179	     -5.29896115	     -7.16011378	     53.52155491	     53.52155491	     -0.59952817	    -16.47952647	      1.79578900	      8.66225261	     -1.72679780	     -8.01574764	     16.73317633	     16.73317633	     14.37293498	     -9.34617004	      1.31565352	     -9.21495435	      6.75758893	      2.95354597	     -6.27427610	    -11.27595319	     -6.44453730	     22.00273594	     46.21693808	      0.00000000	      0.00000000	     16.20809902	    -14.97358058	     -0.91404640	     62.86220520	     46.87438995	      0.00000000	      0.00000000
     31.12450000	     -3.40661824	     -3.62464918	     -1.75887418	      0.93551644	      0.93598982	      0.44003064	     33.94539759	     -5.04643859	     -7.41573542	     50.15487001	     50.15487001	     -0.22968739	    -15.97143976	      1.76507870	      7.81416080	     -1.68231465	     -8.51657868	     16.15026651	     16.15026651	     14.59248447	     -8.66897026	      0.87077964	     -9.43561864	      6.65590270	      3.25955117	     -7.69317994	    -11.31351963	     -6.31806840	     21.99894904	     46.20314860	      0.00000000	      0.00000000	     17.10246017	    -14.84190205	     -1.87394833	     65.16525791	     46.99165766	      0.00000000	      0.00000000
     31.13657143	     -3.56086822	     -3.64689066	     -1.84749673	      0.93462617	      0.93548897	      0.44013690	     33.83588701	     -4.74804280	     -7.81799946	     46.50727280	     46.50727280	     -0.12362629	    -15.25460224	      0.98952702	      7.30322363	     -1.74101184	     -8.95104918	     15.74205333	     15.74205333	     14.75783371	     -7.93817936	      0.04302227	     -9.39407607	      6.64159791	      2.87912544	     -8.97051017	    -11.39818620	     -6.06907993	     22.84935584	     46.15520225	      0.00000000	      0.00000000	     17.31923917	    -14.97430814	     -3.42667643	     67.91298528	     47.15968722	      0.00000000	      0.00000000
     31.14864286	     -3.71799014	     -3.68858679	     -1.90309213	      0.93368646	      0.93493304	      0.44037928	     33.59379024	     -4.37844365	     -8.20436497	     42.68034195	     42.68034195	      0.24971974	    -14.15451073	      1.16312358	      6.85117510	     -1.77447017	     -9.01169940	     15.42957894	     15.42957894	     15.03475571	     -7.74797879	     -0.15681199	     -9.28257715	      6.65440342	      2.73573654	     -9.90440439	    -11.40775378	     -6.00336003	     22.67936794	     46.15262851	      0.00000000	      0.00000000	     18.30037972	    -15.21846481	     -3.79913586	     68.82975460	     47.20796921	      0.00000000	      0.00000000
     31.16071429	     -3.77076360	     -3.69040720	     -1.96505356	      0.93293681	      0.93439823	      0.44074311	     33.07786989	     -4.02449579	     -8.59109589	     38.66976990	     38.66976990	      0.57817266	    -12.60631262	      1.16180663	      6.23246082	     -1.78474705	     -9.23707253	     15.04693757	     15.04693757	     15.30967598	     -7.30505325	     -0.48766928	     -9.32765014	      6.62837390	      2.81226137	    -10.92225171	    -11.45048807	     -5.96568118	     22.68261655	     46.14491759	      0.00000000	      0.00000000	     19.17661109	    -15.22525110	     -4.28157341	     70.21733244	     47.27176426	      0.00000000	      0.00000000
     31.17278571	     -3.84365525	     -3.67526744	     -2.03864081	      0.93233657	      0.93364911	      0.44125370	     32.47087265	     -3.65536176	     -9.00362229	     34.60488330	     34.60488330	      0.83219020	    -10.77216979	      1.17857473	      5.63796384	     -1.79214459	     -9.51348142	     14.69974548	     14.69974548	     15.62678314	     -6.80777905	     -0.91370534	     -9.30127954	      6.52668563	      2.80519963	    -11.86165458	    -11.47704785	     -5.98063307	     22.86501273	     46.13416836	      0.00000000	      0.00000000	     19.92600826	    -15.25441951	     -4.79068356	     71.66054035	     47.33772380	      0.00000000	      0.00000000
     31.18485714	     -3.87203944	     -3.60508768	     -2.11092967	      0.93193977	      0.93280035	      0.44194123	     31.72250201	     -3.31755246	     -9.45823670	     30.58196721	     30.58196721	      1.00753166	     -8.65496590	      1.27620649	      4.99080860	     -1.75911404	     -9.87252905	     14.37383102	     14.37383102	     15.94209285	     -6.22321277	     -1.43623170	     -9.30808195	      6.33171975	      2.77157630	    -12.71414338	    -11.50628087	     -6.04401194	     23.22950026	     46.12071055	      0.00000000	      0.00000000	     20.55458829	    -15.30666182	     -5.35901030	     73.19589580	     47.40971158	      0.00000000	      0.00000000
